<?xml version="1.0" encoding="UTF-8"?>
<svg id="Layer_2" data-name="Layer 2" xmlns="http://www.w3.org/2000/svg" viewBox="0 0 17.09 32">
  <defs>
    <style>
      .cls-1 {
        fill: #fefefe;
      }

      .cls-1, .cls-2, .cls-3, .cls-4, .cls-5, .cls-6, .cls-7, .cls-8, .cls-9, .cls-10, .cls-11, .cls-12 {
        stroke-width: 0px;
      }

      .cls-2 {
        fill: #273033;
      }

      .cls-3 {
        fill: #d5fafc;
      }

      .cls-5 {
        fill: #acb6ba;
      }

      .cls-6 {
        fill: #ff6f57;
      }

      .cls-7 {
        fill: #f7d035;
      }

      .cls-8 {
        fill: #1f2530;
      }

      .cls-9 {
        fill: #383d4a;
      }

      .cls-10 {
        fill: #ae222c;
      }

      .cls-11 {
        fill: #ffd733;
      }

      .cls-12 {
        fill: #c1991f;
      }
    </style>
  </defs>
  <g id="_Ñëîé_1" data-name="Ñëîé 1">
    <g>
      <path class="cls-12" d="m11.07,31.95c-1.3.08-3.9.06-5.2,0-2.32-.11-3.72-1.09-3.72-3.49l-.31-23.9C1.84,2.16,3.73.36,5.95.14c.64-.06,1.59-.14,2.5-.14s2.04.08,2.7.14c2.46.22,4.11,2.02,4.11,4.42l-.31,23.9c0,2.4-1.5,3.35-3.88,3.49Z"/>
      <path class="cls-11" d="m3.37,9.54s-.83-1.08-.83-2.01.43-4.78.43-4.78l1.94-1.38s1.6-.19,3.71-.19,3.61.22,3.61.22l1.94,1.56s.46,4.29.39,4.8c-.07.51-.44,1.43-.76,1.77H3.37Z"/>
      <path class="cls-11" d="m3.99,13.59v12.53c0,.47.43.84.85.84h7.5c.42,0,.76-.38.76-.84v-12.62s-1.75-.69-4.19-.69-4.93.77-4.93.77Z"/>
      <path class="cls-2" d="m2.68,12.65l.68,2.2c.05.21.05,1.38.06,1.6l.03,3.32h-.85s-.21-5.09-.16-7.1c0-.17.21-.19.24-.03Z"/>
      <path class="cls-2" d="m2.81,25.92l.59-2.28c.04-.16.06-.32.06-.48l-.02-2.4h-.83s-.11,3.7-.03,5.15c0,.12.2.13.23.02Z"/>
      <path class="cls-2" d="m14.41,12.65l-.68,2.2c-.05.21-.05,1.38-.06,1.6l-.03,3.32h.85s.21-5.09.16-7.1c0-.17-.21-.19-.24-.03Z"/>
      <path class="cls-2" d="m14.28,25.92l-.59-2.28c-.04-.16-.06-.32-.06-.48l.02-2.4h.83s.11,3.7.03,5.15c0,.12-.2.13-.23.02Z"/>
      <path class="cls-2" d="m13.74,9.71c-.07-.43-.7-.8-1.82-1.04-1.12-.24-2.52-.3-3.36-.3-.84,0-2.24.07-3.36.31-1.12.25-1.75.62-1.82,1.05-.07.43.55,2.83.69,3.38.14.55.79.33,1.77.14.98-.19,2.16-.27,2.86-.28.68,0,1.66.06,2.65.24.98.18,1.6.47,1.74-.09.14-.55.72-2.99.65-3.42Z"/>
      <path class="cls-7" d="m12.49,29.5c-.97.17-3.75.24-3.93.25-.19,0-2.97-.07-3.93-.25-1-.18-1.56-.36-1.56-.36l.27.68,1.1,1.36s1.36.21,4.11.21h0s0,0,.01,0,0,0,.01,0h0c2.74,0,4.11-.21,4.11-.21l1.1-1.36.27-.68s-.56.18-1.56.36Z"/>
      <path class="cls-9" d="m13.85,28.67c-.07.22-.71.41-1.84.54-1.13.13-2.54.16-3.39.16-.85,0-2.26-.03-3.39-.16-1.13-.13-1.76-.32-1.83-.54-.07-.22.57-1.52.71-1.8.14-.28.78-.1,1.77,0,.99.1,2.74.14,2.74.14,0,0,1.82-.02,2.81-.12.99-.09,1.57-.29,1.71,0,.14.29.77,1.58.7,1.81Z"/>
      <path class="cls-4" d="m13.85,28.66c-.07.22-.71.41-1.84.54-.64.07-1.38.11-2.05.13.09-.19.66-1.39.53-2.4.38-.01.89-.06,1.18-.09.99-.09,1.34-.29,1.48,0,.14.29.77,1.59.7,1.81Z"/>
      <g>
        <path class="cls-1" d="m6,16.13h5.11c.25,0,.45.2.45.45v.84h-6.02v-.84c0-.25.2-.45.45-.45Z"/>
        <rect class="cls-8" x="7" y="16.31" width=".48" height=".48"/>
        <rect class="cls-8" x="7.47" y="16.78" width=".48" height=".48"/>
        <rect class="cls-8" x="7.95" y="16.31" width=".48" height=".48"/>
        <rect class="cls-8" x="8.92" y="16.31" width=".48" height=".48"/>
        <rect class="cls-8" x="8.43" y="16.78" width=".48" height=".48"/>
        <rect class="cls-8" x="9.39" y="16.78" width=".48" height=".48"/>
        <rect class="cls-8" x="9.86" y="16.31" width=".48" height=".48"/>
        <rect class="cls-8" x="10.34" y="16.78" width=".48" height=".48"/>
        <rect class="cls-8" x="6.51" y="16.78" width=".48" height=".48" transform="translate(13.5 34.05) rotate(180)"/>
      </g>
      <g>
        <path class="cls-6" d="m4.41,31.2c-.21.15-.63-.08-.94-.51-.31-.43-.39-.9-.18-1.05.21-.15.63.08.94.51.31.43.39.9.18,1.05Z"/>
        <path class="cls-10" d="m3.3,29.64s0,0,0,0c.05.16.13.34.25.51.31.43.73.66.94.51,0,0,0,0,0,0-.05-.16-.13-.34-.25-.51-.31-.43-.73-.66-.94-.51Z"/>
        <path class="cls-6" d="m12.67,31.2c.21.15.63-.08.94-.51.31-.43.39-.9.18-1.05s-.63.08-.94.51c-.31.43-.39.9-.18,1.05Z"/>
        <path class="cls-10" d="m13.78,29.64s0,0,0,0c-.05.16-.13.34-.25.51-.31.43-.73.66-.94.51,0,0,0,0,0,0,.05-.16.13-.34.25-.51.31-.43.73-.66.94-.51Z"/>
      </g>
      <path class="cls-3" d="m2.84,3.76s1.04-1.38,2.48-2.04c.16-.07.26-.22.27-.4l.02-.44s-1.47.26-2.28,1.14c-.53.58-.49,1.73-.49,1.73Z"/>
      <path class="cls-4" d="m13.74,9.71c-.07-.43-.7-.8-1.82-1.04-.67-.15-1.43-.22-2.12-.27.07.31.51,2.28.6,4.67.31.04.63.08.95.14.98.18,1.6.47,1.74-.09.14-.55.72-2.99.65-3.42Z"/>
      <path class="cls-6" d="m3.33,2.02c-.22.24-.34.57-.41.89.35-.03.69-.29.84-.62.11-.23.15-.49.15-.74-.21.13-.41.29-.58.48Z"/>
      <g>
        <path class="cls-3" d="m14.26,3.76s-1.04-1.38-2.48-2.04c-.16-.07-.26-.22-.27-.4l-.02-.44s1.47.26,2.28,1.14c.53.58.49,1.73.49,1.73Z"/>
        <path class="cls-6" d="m13.77,2.02c.22.24.34.57.41.89-.35-.03-.69-.29-.84-.62-.11-.23-.15-.49-.15-.74.21.13.41.29.58.48Z"/>
      </g>
      <path class="cls-5" d="m11.49.89l-.34-.75c-.66-.06-1.8-.14-2.7-.14s-1.87.07-2.5.14l-.35.75h5.89Z"/>
      <path class="cls-4" d="m2.44,12.98c-.13,0-.34-.04-.34-.04,0,0,0-.22-.5-.21-.5.01-1.1.11-1.37.34-.26.23-.32.67-.11.77.21.1,1.95-.19,1.97-.29.03-.1.03-.14.03-.14l.32.03v-.47Z"/>
      <path class="cls-4" d="m14.64,12.98c.13,0,.34-.04.34-.04,0,0,0-.22.5-.21.5.01,1.1.11,1.37.34.26.23.32.67.11.77-.21.1-1.95-.19-1.97-.29-.03-.1-.03-.14-.03-.14l-.32.03v-.47Z"/>
      <g>
        <path class="cls-4" d="m11.08,3.78h.35v1.68h.6v.31h-1.55v-.31h.6v-1.68Z"/>
        <path class="cls-4" d="m8.37,3.78h.4l.15.38h.91l.15-.38h.4l-.78,1.98h-.43l-.78-1.98Zm.64.69l.36.95.36-.95h-.71Z"/>
        <path class="cls-4" d="m6.26,3.78h.42l.56.78.56-.78h.42l-.74,1.02.7.97h-.42l-.51-.73-.51.73h-.42l.7-.96-.74-1.02Z"/>
        <path class="cls-4" d="m5.54,3.78h.35v1.98h-.35v-1.98Z"/>
      </g>
    </g>
  </g>
</svg>